<svg xmlns="http://www.w3.org/2000/svg" viewBox="0 0 200 200" width="200" height="200"><clipPath id="tile"><rect x="0" y="0" width="200" height="200" rx="46"/></clipPath><rect width="200" height="200" rx="46" fill="#E4883C"/><g clip-path="url(#tile)"><g transform="translate(0,-6)"><ellipse cx="100" cy="201" rx="26" ry="16" fill="#FCF4E6"/><ellipse cx="100" cy="219" rx="20" ry="14" fill="#FCF4E6"/><ellipse cx="100" cy="186" rx="31" ry="19.5" fill="#FCF4E6"/><path d="M99.2 175.3 L97.6 173.3 L96.0 171.3 L94.5 169.4 L93.0 167.4 L91.6 165.5 L90.2 163.5 L88.8 161.6 L87.5 159.7 L86.2 157.8 L85.0 155.9 L83.8 154.0 L82.6 152.2 L81.5 150.3 L80.4 148.5 L79.4 146.6 L78.4 144.8 L77.4 143.0 L76.5 141.1 L75.6 139.3 L74.7 137.5 L73.9 135.7 L73.1 133.9 L72.3 132.1 L71.6 130.4 L70.9 128.6 L70.3 126.8 L69.7 125.0 L69.1 123.3 L68.5 121.5 L68.0 119.7 L67.5 117.9 L67.1 116.2 L66.7 114.4 L66.3 112.6 L65.9 110.8 L65.6 109.1 L65.3 107.3 L65.1 105.5 L64.9 103.7 L64.7 101.9 L64.5 100.1 L64.4 98.2 L64.4 96.4 L64.3 94.6 L64.3 92.7 L64.4 90.9 L64.4 89.0 L64.5 87.1 L64.7 85.2 L64.9 83.3 L65.1 81.4 L65.4 79.4 L65.7 77.5 L66.0 75.5 L66.4 73.5 L66.9 71.5 L67.3 69.5 L67.9 67.5 L68.4 65.5 L69.0 63.4 L69.7 61.4 L70.4 59.3 L71.1 57.2 L71.9 55.1 L72.7 53.0 L73.6 50.9 L74.6 48.8 L75.5 46.6 L76.6 44.5 L77.6 42.3 L78.7 40.1 L79.9 37.9 L81.1 35.7 L82.4 33.5 L83.7 31.3 L85.1 29.0 L86.5 26.8 L87.9 24.5 L89.4 22.3 L91.0 20.0 L91.0 20.0 L88.9 21.7 L86.7 23.5 L84.7 25.2 L82.7 27.0 L80.7 28.8 L78.7 30.6 L76.8 32.4 L75.0 34.2 L73.2 36.0 L71.4 37.9 L69.7 39.8 L68.0 41.7 L66.3 43.6 L64.8 45.5 L63.2 47.4 L61.7 49.3 L60.2 51.3 L58.8 53.3 L57.4 55.3 L56.1 57.3 L54.8 59.3 L53.6 61.4 L52.4 63.4 L51.2 65.5 L50.1 67.6 L49.1 69.8 L48.1 71.9 L47.2 74.0 L46.3 76.2 L45.4 78.4 L44.6 80.6 L43.9 82.8 L43.2 85.1 L42.5 87.3 L41.9 89.6 L41.4 91.9 L40.9 94.2 L40.5 96.5 L40.1 98.8 L39.8 101.1 L39.6 103.5 L39.3 105.8 L39.2 108.2 L39.1 110.6 L39.1 113.0 L39.1 115.3 L39.2 117.7 L39.3 120.2 L39.5 122.6 L39.8 125.0 L40.1 127.4 L40.4 129.8 L40.9 132.2 L41.4 134.7 L41.9 137.1 L42.5 139.5 L43.1 142.0 L43.8 144.4 L44.6 146.8 L45.4 149.2 L46.3 151.6 L47.2 154.1 L48.2 156.5 L49.2 158.9 L50.3 161.3 L51.4 163.7 L52.6 166.1 L53.9 168.5 L55.2 170.9 L56.5 173.3 L57.9 175.6 L59.4 178.0 L60.9 180.4 L62.4 182.7 L64.0 185.1 L65.7 187.4 L67.4 189.8 L69.2 192.1 L71.0 194.4 L72.8 196.7 L101.0 178.0 L102.3 181.1 L102.9 184.4 L102.9 187.7 L102.2 191.0 L101.0 194.1 L99.1 196.8 L96.7 199.2 L94.0 201.0 L90.9 202.3 L87.6 202.9 L84.3 202.9 L81.0 202.2 L77.9 201.0 L75.2 199.1 Z" fill="#FCF4E6"/><path d="M100.8 175.3 L102.4 173.3 L104.0 171.3 L105.5 169.4 L107.0 167.4 L108.4 165.5 L109.8 163.5 L111.2 161.6 L112.5 159.7 L113.8 157.8 L115.0 155.9 L116.2 154.0 L117.4 152.2 L118.5 150.3 L119.6 148.5 L120.6 146.6 L121.6 144.8 L122.6 143.0 L123.5 141.1 L124.4 139.3 L125.3 137.5 L126.1 135.7 L126.9 133.9 L127.7 132.1 L128.4 130.4 L129.1 128.6 L129.7 126.8 L130.3 125.0 L130.9 123.3 L131.5 121.5 L132.0 119.7 L132.5 117.9 L132.9 116.2 L133.3 114.4 L133.7 112.6 L134.1 110.8 L134.4 109.1 L134.7 107.3 L134.9 105.5 L135.1 103.7 L135.3 101.9 L135.5 100.1 L135.6 98.2 L135.6 96.4 L135.7 94.6 L135.7 92.7 L135.6 90.9 L135.6 89.0 L135.5 87.1 L135.3 85.2 L135.1 83.3 L134.9 81.4 L134.6 79.4 L134.3 77.5 L134.0 75.5 L133.6 73.5 L133.1 71.5 L132.7 69.5 L132.1 67.5 L131.6 65.5 L131.0 63.4 L130.3 61.4 L129.6 59.3 L128.9 57.2 L128.1 55.1 L127.3 53.0 L126.4 50.9 L125.4 48.8 L124.5 46.6 L123.4 44.5 L122.4 42.3 L121.3 40.1 L120.1 37.9 L118.9 35.7 L117.6 33.5 L116.3 31.3 L114.9 29.0 L113.5 26.8 L112.1 24.5 L110.6 22.3 L109.0 20.0 L109.0 20.0 L111.1 21.7 L113.3 23.5 L115.3 25.2 L117.3 27.0 L119.3 28.8 L121.3 30.6 L123.2 32.4 L125.0 34.2 L126.8 36.0 L128.6 37.9 L130.3 39.8 L132.0 41.7 L133.7 43.6 L135.2 45.5 L136.8 47.4 L138.3 49.3 L139.8 51.3 L141.2 53.3 L142.6 55.3 L143.9 57.3 L145.2 59.3 L146.4 61.4 L147.6 63.4 L148.8 65.5 L149.9 67.6 L150.9 69.8 L151.9 71.9 L152.8 74.0 L153.7 76.2 L154.6 78.4 L155.4 80.6 L156.1 82.8 L156.8 85.1 L157.5 87.3 L158.1 89.6 L158.6 91.9 L159.1 94.2 L159.5 96.5 L159.9 98.8 L160.2 101.1 L160.4 103.5 L160.7 105.8 L160.8 108.2 L160.9 110.6 L160.9 113.0 L160.9 115.3 L160.8 117.7 L160.7 120.2 L160.5 122.6 L160.2 125.0 L159.9 127.4 L159.6 129.8 L159.1 132.2 L158.6 134.7 L158.1 137.1 L157.5 139.5 L156.9 142.0 L156.2 144.4 L155.4 146.8 L154.6 149.2 L153.7 151.6 L152.8 154.1 L151.8 156.5 L150.8 158.9 L149.7 161.3 L148.6 163.7 L147.4 166.1 L146.1 168.5 L144.8 170.9 L143.5 173.3 L142.1 175.6 L140.6 178.0 L139.1 180.4 L137.6 182.7 L136.0 185.1 L134.3 187.4 L132.6 189.8 L130.8 192.1 L129.0 194.4 L127.2 196.7 L99.0 178.0 L97.7 181.1 L97.1 184.4 L97.1 187.7 L97.8 191.0 L99.0 194.1 L100.9 196.8 L103.3 199.2 L106.0 201.0 L109.1 202.3 L112.4 202.9 L115.7 202.9 L119.0 202.2 L122.1 201.0 L124.8 199.1 Z" fill="#FCF4E6"/></g></g></svg>